<svg id="map-assault" viewBox="0 0 64 64" xmlns="http://www.w3.org/2000/svg" version="1.1"
     baseProfile="full">
    <g>
        <rect class="cls-1" x="22.15" y="19.88" width="19.69" height="19.69" rx="2.89" ry="2.89"
              transform="translate(-11.65 31.33) rotate(-45)"/>
        <path class="cls-1"
              d="M12.54,29.29A19.47,19.47,0,0,0,46.41,42.8h0l-2.66-2.28h0a16,16,0,1,1-12.5-26.75h0v-3.5h0A19.47,19.47,0,0,0,12.54,29.29Z"/>
        <path class="cls-1"
              d="M48,29.72a15.89,15.89,0,0,1-3.25,9.65l2.66,2.28A19.47,19.47,0,0,0,32.75,10.27v3.51A16,16,0,0,1,48,29.72Z"/>
        <path class="cls-1"
              d="M32.37,7A22.73,22.73,0,0,0,13.47,42.89h0v-2.8h0A21.4,21.4,0,0,1,11.4,24.51,20.84,20.84,0,0,1,27.13,9a21.25,21.25,0,0,1,23.4,31h0v2.8h0A22.73,22.73,0,0,0,32.37,7Z"/>
        <path class="cls-1"
              d="M32,51a21.19,21.19,0,0,1-16.66-8.08A.21.21,0,0,0,15,43v1.68a.21.21,0,0,0,.05.14,22.71,22.71,0,0,0,12,7.08.22.22,0,0,1,.13.08l0,0,4.31,4.78a.65.65,0,0,0,.91,0L36.75,52a.21.21,0,0,1,.1-.06A22.71,22.71,0,0,0,49,44.83a.21.21,0,0,0,.05-.14V43a.21.21,0,0,0-.37-.13A21.19,21.19,0,0,1,32,51Z"/>
    </g>
</svg>