<svg id="map-hybrid" viewBox="0 0 64 64" xmlns="http://www.w3.org/2000/svg" version="1.1"
     baseProfile="full">
    <g>
        <rect class="cls-1" x="12.56" y="23.95" width="11.82" height="11.82" rx="1.74" ry="1.74"
              transform="translate(-15.71 21.8) rotate(-45)"/>
        <path class="cls-1" d="M28.81,24.41a11.69,11.69,0,0,0-9.9-6.23v2.11a9.59,9.59,0,0,1,8.91,7.5Z"/>
        <path class="cls-1" d="M18,20.28h0v-2.1h0a11.69,11.69,0,1,0,6.36,21.77l1-3.46A9.58,9.58,0,1,1,18,20.28Z"/>
        <path class="cls-1"
              d="M24,41.33A12.75,12.75,0,0,1,8.46,37.76a.13.13,0,0,0-.23.08v1a.13.13,0,0,0,0,.08,13.64,13.64,0,0,0,7.21,4.25.13.13,0,0,1,.08.05l0,0,2.59,2.87a.39.39,0,0,0,.55,0l2.61-2.89.06,0a13.54,13.54,0,0,0,2.31-.72Z"/>
        <path class="cls-1"
              d="M6.1,26.72a12.52,12.52,0,0,1,9.45-9.29,12.77,12.77,0,0,1,13.75,5.69L29.62,22A13.65,13.65,0,1,0,7.34,37.76h0V36.08h0A12.85,12.85,0,0,1,6.1,26.72Z"/>
        <path class="cls-1"
              d="M58.8,34.15h0c0-.23,0-.46,0-.7h0a.27.27,0,0,0,.27-.23.26.26,0,0,0-.26-.28h-.08c0-.23,0-.46,0-.7h.08a.27.27,0,0,0,.27-.23.26.26,0,0,0-.26-.28h-.11l0-.7h.12a.26.26,0,0,0,.26-.28.27.27,0,0,0-.27-.23h-.12l0-.72h0a.55.55,0,0,0,.52-.61.57.57,0,0,0-.58-.49h-.06C58,26.27,56,24.47,52.69,24.47H47.87c-1.23-2.1-1.87-3.51-2.4-3.79a16.33,16.33,0,0,0-6.06-.87c-.88,0-1.61,0-2.22,0L31.88,38.09h10.2a1.77,1.77,0,0,0-.26.8c0,1.14.81,1.32,2.1,1.18h0c0-.11,2.24-3.88,5.79-3.81a7.63,7.63,0,0,1,5.8,3.56s0,.09,0,.13h0c1.48.17,2.43,0,2.43-1.21a2.37,2.37,0,0,0-.58-1.22h0c1.29-.3,1.47-1.4,1.44-2.86h0a.26.26,0,0,0,.26-.19A.26.26,0,0,0,58.8,34.15ZM46,24.54l-5,.23h0c-1.64,0-1.88.2-1.88-.29S39,22.78,39,22.3s0-.85.57-.85,3.4-.08,4,0a1.34,1.34,0,0,1,1.3.9L46,24.54Z"/>
        <path class="cls-1"
              d="M49.74,41.55a1.19,1.19,0,1,0,1.49,1.15A1.36,1.36,0,0,0,49.74,41.55Zm0,2a.62.62,0,1,1,.78-.6A.71.71,0,0,1,49.74,43.5Z"/>
        <path class="cls-1"
              d="M51.47,37.86l.06-.3a.5.5,0,0,0-.5-.5H48.47a.5.5,0,0,0-.5.5l.07.3c-2.44.56-4.21,2.31-4.21,4.37a3.83,3.83,0,0,0,1,2.5h0a.26.26,0,0,0,0,.36l.91.91a.26.26,0,0,0,.36,0l.11-.16a7.36,7.36,0,0,0,7.17,0l.11.16a.26.26,0,0,0,.36,0l.91-.91a.26.26,0,0,0,0-.36h0a3.83,3.83,0,0,0,1-2.5C55.66,40.16,53.9,38.43,51.47,37.86ZM49,37.94h1.46a.29.29,0,0,1,.29.29l-.24,1.33a.29.29,0,0,1-.29.29h-.92a.29.29,0,0,1-.29-.29l-.3-1.33A.29.29,0,0,1,49,37.94Zm-2.6,7-.39.56a.15.15,0,0,1-.21,0L45.29,45a.15.15,0,0,1,0-.21l.58-.37a.15.15,0,0,1,.21,0l.33.33,0,0v.08A.14.14,0,0,1,46.41,44.93Zm3.34.48c-1.72,0-3.11-1.07-3.11-2.39s1.39-2.39,3.11-2.39,3.11,1.07,3.11,2.39S51.46,45.41,49.74,45.41ZM54.2,45l-.52.52a.15.15,0,0,1-.21,0l-.39-.56,0,0a.61.61,0,0,1,0-.09.14.14,0,0,1,0-.08l.33-.33a.15.15,0,0,1,.21,0l.58.37A.15.15,0,0,1,54.2,45Z"/>
        <polygon class="cls-1" points="34.57 12 23.4 51.21 26.11 52 37.27 12.79 34.57 12"/>
    </g>
</svg>