<svg id="map-control" viewBox="0 0 64 64" xmlns="http://www.w3.org/2000/svg" version="1.1"
     baseProfile="full">
    <g>
        <path class="cls-1"
              d="M54.94,29.44,34.56,9.06a3.63,3.63,0,0,0-5.12,0L9.06,29.44a3.63,3.63,0,0,0,0,5.12L29.44,54.94a3.63,3.63,0,0,0,5.12,0L54.94,34.56A3.63,3.63,0,0,0,54.94,29.44Zm-.9,3.9L33.35,54a1.91,1.91,0,0,1-2.69,0L10,33.35a1.91,1.91,0,0,1,0-2.69L30.65,10a1.91,1.91,0,0,1,2.69,0L54,30.65A1.91,1.91,0,0,1,54,33.35Z"/>
        <path class="cls-1"
              d="M34.21,12.21a3.13,3.13,0,0,0-4.41,0L12.21,29.79a3.13,3.13,0,0,0,0,4.41L29.79,51.79a3.13,3.13,0,0,0,4.41,0L51.79,34.21a3.13,3.13,0,0,0,0-4.41ZM33,49.17a1.49,1.49,0,0,1-2.1,0l-13-13h5.38v.55a1.3,1.3,0,0,0,2.24.89l5-5.32a.46.46,0,0,0,0-.63l-5-5.29a1.3,1.3,0,0,0-2.24.89v.55H18l13-13a1.49,1.49,0,0,1,2.1,0l13,13H40.66v-.55a1.3,1.3,0,0,0-2.24-.89l-5,5.29a.46.46,0,0,0,0,.63l5,5.32a1.3,1.3,0,0,0,2.24-.89v-.55H46Z"/>
    </g>
</svg>