<svg id="map-escort" viewBox="0 0 64 64" xmlns="http://www.w3.org/2000/svg" version="1.1"
     baseProfile="full">
    <g>
        <rect class="cls-1" x="10.38" y="24.34" width="21.03" height="14.39" rx="0.81" ry="0.81"/>
        <path class="cls-1"
              d="M60.62,37.83h0c0-.23,0-.47,0-.72h0a.28.28,0,0,0,.28-.24.26.26,0,0,0-.26-.29h-.09c0-.24,0-.47,0-.72h.08a.28.28,0,0,0,.28-.24.26.26,0,0,0-.26-.29H60.5l0-.72h.13a.26.26,0,0,0,.26-.29.28.28,0,0,0-.28-.24h-.12l0-.74h0a.57.57,0,0,0,.53-.63.59.59,0,0,0-.59-.5h-.06c-.5-2.43-2.65-4.26-6-4.26H49.44c-1.26-2.15-1.91-3.59-2.45-3.87a16.68,16.68,0,0,0-6.19-.89c-3.43,0-4.64.13-5,.35s-.59.19-.59,1.48v5.42H34.7V23.8a.6.6,0,0,0-.6-.6H32.66a.6.6,0,0,0-.6.6V39.27H3.39a.39.39,0,0,0-.39.39v1.81a.39.39,0,0,0,.39.39h1a.14.14,0,0,1,.14.14v.24a.47.47,0,0,0,.47.47H8.49A.47.47,0,0,0,9,42.25V42a.14.14,0,0,1,.14-.14h3.34a.14.14,0,0,0,.09,0,6,6,0,0,1,4.06-1.48,6,6,0,0,1,4.06,1.48.14.14,0,0,0,.09,0H22a.14.14,0,0,1,.14.14v.24a.47.47,0,0,0,.47.47h1.72a.14.14,0,0,0,.1,0l.24-.24a.14.14,0,0,1,.2,0l.24.24a.14.14,0,0,0,.1,0H27a.14.14,0,0,0,.1,0l.11-.11a.14.14,0,0,1,.2,0l.11.11a.14.14,0,0,0,.1,0h1.82a.14.14,0,0,0,.1,0l.24-.24a.14.14,0,0,1,.2,0l.24.24a.14.14,0,0,0,.1,0h1.42a.47.47,0,0,0,.47-.47V42a.14.14,0,0,1,.14-.14h11.2a1.8,1.8,0,0,0-.26.81c0,1.16.83,1.35,2.14,1.2h0c0-.11,2.29-4,5.91-3.89a7.79,7.79,0,0,1,5.92,3.64s0,.09,0,.13h0c1.51.17,2.49,0,2.49-1.23a2.42,2.42,0,0,0-.6-1.24h0c1.32-.3,1.5-1.43,1.47-2.92h0a.27.27,0,0,0,.26-.2A.26.26,0,0,0,60.62,37.83ZM47.5,28l-5.07.24h0c-1.67,0-1.92.21-1.92-.29s-.08-1.74-.08-2.23,0-.86.58-.86,3.47-.08,4.06,0a1.37,1.37,0,0,1,1.32.92L47.5,28Z"/>
        <path class="cls-1"
              d="M51.36,45.39a1.21,1.21,0,1,0,1.53,1.17A1.38,1.38,0,0,0,51.36,45.39Zm0,2a.64.64,0,1,1,.8-.62A.73.73,0,0,1,51.36,47.39Z"/>
        <path class="cls-1"
              d="M53.12,41.63l.06-.31a.51.51,0,0,0-.51-.51H50.06a.51.51,0,0,0-.51.51l.07.31c-2.49.58-4.3,2.35-4.3,4.46a3.92,3.92,0,0,0,1,2.55h0a.26.26,0,0,0,0,.37l.93.93a.26.26,0,0,0,.37,0l.11-.16a7.51,7.51,0,0,0,7.32,0l.11.16a.26.26,0,0,0,.37,0l.93-.93a.26.26,0,0,0,0-.37h0a3.91,3.91,0,0,0,1-2.55C57.41,44,55.6,42.21,53.12,41.63Zm-2.51.08h1.49a.3.3,0,0,1,.29.29l-.25,1.36a.3.3,0,0,1-.29.29h-.94a.3.3,0,0,1-.29-.29L50.32,42A.3.3,0,0,1,50.61,41.71ZM48,48.85l-.4.57a.15.15,0,0,1-.21,0l-.54-.54a.15.15,0,0,1,0-.21l.6-.37a.15.15,0,0,1,.21,0l.34.34,0,0v.08A.15.15,0,0,1,48,48.85Zm3.41.49c-1.75,0-3.17-1.09-3.17-2.44s1.42-2.44,3.17-2.44,3.17,1.09,3.17,2.44S53.11,49.33,51.36,49.33Zm4.55-.45-.54.54a.15.15,0,0,1-.21,0l-.4-.57,0,0a.63.63,0,0,1,0-.09.14.14,0,0,1,0-.08l.34-.34a.15.15,0,0,1,.21,0l.6.37A.15.15,0,0,1,55.91,48.89Z"/>
        <path class="cls-1"
              d="M16.8,45.33a1.23,1.23,0,1,0,0,2.38,1.23,1.23,0,1,0,0-2.38Zm0,2a.64.64,0,1,1,.8-.62A.73.73,0,0,1,16.8,47.35Z"/>
        <path class="cls-1"
              d="M18.56,41.51l.06-.31a.52.52,0,0,0-.51-.52H15.5a.52.52,0,0,0-.51.52l.07.31c-2.49.58-4.3,2.38-4.3,4.52a4,4,0,0,0,1,2.59h0a.27.27,0,0,0,0,.37l.93.95a.26.26,0,0,0,.37,0l.11-.16a7.43,7.43,0,0,0,7.32,0l.11.16a.26.26,0,0,0,.37,0l.93-.95a.27.27,0,0,0,0-.37h0a4,4,0,0,0,1-2.59C22.85,43.9,21,42.1,18.56,41.51Zm-2.51.08h1.49a.3.3,0,0,1,.29.3l-.25,1.37a.3.3,0,0,1-.29.3h-.94a.3.3,0,0,1-.29-.3l-.31-1.37A.3.3,0,0,1,16.06,41.59ZM13.4,48.82l-.4.58a.15.15,0,0,1-.21,0l-.54-.54a.15.15,0,0,1,0-.21l.6-.38a.15.15,0,0,1,.21,0l.34.34,0,0v.08A.15.15,0,0,1,13.4,48.82Zm3.41.49c-1.75,0-3.17-1.11-3.17-2.48s1.42-2.48,3.17-2.48S20,45.47,20,46.84,18.56,49.32,16.8,49.32Zm4.55-.45-.54.54a.15.15,0,0,1-.21,0l-.4-.58,0,0a.65.65,0,0,1,0-.09.15.15,0,0,1,0-.08l.34-.34a.15.15,0,0,1,.21,0l.6.38A.15.15,0,0,1,21.35,48.86Z"/>
        <rect class="cls-1" x="38.04" y="14.19" width="6.12" height="6.12" rx="0.82" ry="0.82"
              transform="translate(-0.16 34.12) rotate(-45)"/>
    </g>
</svg>